# xmcd
#
# Track frame offsets: 
#        187
#        21667
#        38507
#        53067
#        70117
#        86640
#        102190
#        123870
#        139365
#        157940
#
# Disc length: 2304 seconds
#
# Revision: 3
# Processed by: cddbd v1.5.2PL0 Copyright (c) Steve Scherf et al.
# Submitted via: ExactAudioCopy v1.0b3
#
DISCID=7e08fe0a
DTITLE=WHITESNAKE - TROUBLE
DYEAR=1978
DGENRE=Rock
TTITLE0=Take Me With You
TTITLE1=Love To Keep You Warm
TTITLE2=Lie Down (A Modern Love Song)
TTITLE3=Day Tripper
TTITLE4=Night Hawk (Vampire Blues)
TTITLE5=The Time Is Right For Love
TTITLE6=Trouble
TTITLE7=Belgian Tom's Hat Trick
TTITLE8=Free Flight
TTITLE9=Don't Mess With Me
EXTD=
EXTT0=
EXTT1=
EXTT2=
EXTT3=
EXTT4=
EXTT5=
EXTT6=
EXTT7=
EXTT8=
EXTT9=
PLAYORDER=
